<mxfile host="app.diagrams.net" agent="Mozilla/5.0 (Windows NT 10.0; Win64; x64) AppleWebKit/537.36 (KHTML, like Gecko) Chrome/138.0.0.0 Safari/537.36" version="28.0.6">
  <diagram name="用户权限" id="W-fDe8emkCAVPKUDYQbM">
    <mxGraphModel dx="1426" dy="743" grid="1" gridSize="10" guides="1" tooltips="1" connect="1" arrows="1" fold="1" page="1" pageScale="1" pageWidth="827" pageHeight="1169" math="0" shadow="0">
      <root>
        <mxCell id="0" />
        <mxCell id="1" parent="0" />
        <mxCell id="Fa9SJefxMboqEr4pW7fy-1" value="用户" style="rounded=1;whiteSpace=wrap;html=1;fillColor=#ffe6cc;strokeColor=#d79b00;" parent="1" vertex="1">
          <mxGeometry x="100" y="490" width="70" height="30" as="geometry" />
        </mxCell>
        <mxCell id="T-lULtYK8KFaJdvM1O1u-1" value="部门" style="rounded=1;whiteSpace=wrap;html=1;fillColor=#0050ef;strokeColor=#001DBC;fontColor=#ffffff;" vertex="1" parent="1">
          <mxGeometry x="230" y="420" width="70" height="30" as="geometry" />
        </mxCell>
        <mxCell id="T-lULtYK8KFaJdvM1O1u-2" value="职务" style="rounded=1;whiteSpace=wrap;html=1;fillColor=#ffe6cc;strokeColor=#d79b00;" vertex="1" parent="1">
          <mxGeometry x="230" y="490" width="70" height="30" as="geometry" />
        </mxCell>
        <mxCell id="T-lULtYK8KFaJdvM1O1u-3" value="角色" style="rounded=1;whiteSpace=wrap;html=1;fillColor=#0050ef;strokeColor=#001DBC;fontColor=#ffffff;" vertex="1" parent="1">
          <mxGeometry x="230" y="560" width="70" height="30" as="geometry" />
        </mxCell>
        <mxCell id="T-lULtYK8KFaJdvM1O1u-4" value="用户必须有部门和角色，部门也可以分配角色" style="text;html=1;align=center;verticalAlign=middle;whiteSpace=wrap;rounded=0;" vertex="1" parent="1">
          <mxGeometry x="65" y="620" width="140" height="30" as="geometry" />
        </mxCell>
        <mxCell id="T-lULtYK8KFaJdvM1O1u-5" value="权限" style="rounded=1;whiteSpace=wrap;html=1;fillColor=#ffe6cc;strokeColor=#d79b00;" vertex="1" parent="1">
          <mxGeometry x="510" y="480" width="70" height="30" as="geometry" />
        </mxCell>
        <mxCell id="T-lULtYK8KFaJdvM1O1u-6" value="菜单权限" style="rounded=1;whiteSpace=wrap;html=1;fillColor=#ffe6cc;strokeColor=#d79b00;" vertex="1" parent="1">
          <mxGeometry x="630" y="430" width="70" height="30" as="geometry" />
        </mxCell>
        <mxCell id="T-lULtYK8KFaJdvM1O1u-7" value="按钮权限" style="rounded=1;whiteSpace=wrap;html=1;fillColor=#ffe6cc;strokeColor=#d79b00;" vertex="1" parent="1">
          <mxGeometry x="630" y="520" width="70" height="30" as="geometry" />
        </mxCell>
        <mxCell id="T-lULtYK8KFaJdvM1O1u-8" value="关联表" style="rounded=1;whiteSpace=wrap;html=1;fillColor=#ffe6cc;strokeColor=#d79b00;" vertex="1" parent="1">
          <mxGeometry x="250" y="710" width="70" height="30" as="geometry" />
        </mxCell>
        <mxCell id="T-lULtYK8KFaJdvM1O1u-9" value="角色权限" style="rounded=1;whiteSpace=wrap;html=1;fillColor=#ffe6cc;strokeColor=#d79b00;" vertex="1" parent="1">
          <mxGeometry x="390" y="640" width="70" height="30" as="geometry" />
        </mxCell>
        <mxCell id="T-lULtYK8KFaJdvM1O1u-10" value="用户部门" style="rounded=1;whiteSpace=wrap;html=1;fillColor=#ffe6cc;strokeColor=#d79b00;" vertex="1" parent="1">
          <mxGeometry x="390" y="710" width="70" height="30" as="geometry" />
        </mxCell>
      </root>
    </mxGraphModel>
  </diagram>
</mxfile>
